<svg width="32" height="32" viewBox="0 0 32 32" fill="none" xmlns="http://www.w3.org/2000/svg">
<path d="M22.8354 22.3639L22.3639 22.8353C22.1036 23.0956 21.6815 23.0956 21.4211 22.8353L16 17.4141L10.5788 22.8352C10.3185 23.0956 9.89638 23.0956 9.63603 22.8352L9.16462 22.3638C8.90427 22.1035 8.90427 21.6814 9.16462 21.421L14.5858 15.9999L9.16462 10.5787C8.90427 10.3184 8.90427 9.89626 9.16462 9.63591L9.63602 9.16451C9.89637 8.90416 10.3185 8.90416 10.5788 9.16451L16 14.5857L21.4211 9.1645C21.6815 8.90415 22.1036 8.90415 22.3639 9.1645L22.8354 9.6359C23.0957 9.89625 23.0957 10.3184 22.8354 10.5787L17.4142 15.9999L22.8354 21.421C23.0957 21.6814 23.0957 22.1035 22.8354 22.3639Z" fill="black"/>
</svg>
