<svg width="133" height="37" viewBox="0 0 133 37" fill="none" xmlns="http://www.w3.org/2000/svg">
<path fill-rule="evenodd" clip-rule="evenodd" d="M31.5545 9.23552L31.8056 9.68396C32.1218 10.2289 32.2889 10.8476 32.2899 11.4776V25.3791C32.2848 26.0086 32.118 26.6262 31.8056 27.1728L31.5365 27.6213C31.2293 28.1703 30.7761 28.6234 30.2272 28.9307L18.1912 35.8903C17.6462 36.2065 17.0275 36.3735 16.3975 36.3747H15.8952C15.2642 36.3806 14.6438 36.213 14.1015 35.8903L2.0476 28.9487C1.51036 28.6261 1.06067 28.1765 0.73818 27.6392L0.487057 27.1908C0.170903 26.6457 0.00386658 26.0271 0.00274658 25.397V11.4955C0.00386658 10.8656 0.170903 10.2468 0.487057 9.70189L0.73818 9.25346C1.05254 8.70991 1.50406 8.25832 2.0476 7.94403L14.0835 0.98431C14.6286 0.668174 15.2472 0.501137 15.8773 0.5H16.3975C17.0275 0.501137 17.6462 0.668174 18.1912 0.98431L30.2272 7.92609C30.7738 8.24249 31.2306 8.6932 31.5545 9.23552ZM16.3975 4.08739H15.8773L5.38397 10.1502L16.1463 16.3565L26.9088 10.1502L16.3975 4.08739ZM28.4334 25.8276L17.9401 31.8905V19.4778L28.7024 13.2536V25.3792L28.4334 25.8276ZM79.066 27.0475H75.3465V7.41687H79.066V27.0475ZM45.5027 27.4683H49.6613V20.3392H51.4694L55.8863 27.4683H60.329L55.4472 19.6161C57.617 18.9703 59.2442 17.498 59.2442 14.7084V14.605C59.2442 10.7823 56.4804 9 52.1152 9H45.5027V27.4683ZM49.6613 17.498V12.2029H52.0118C54.0266 12.2029 55.1631 12.8487 55.1631 14.7342V14.8375C55.1631 16.6198 54.1041 17.498 52.0118 17.498H49.6613ZM67.0833 27.3309C70.7769 27.3309 73.1016 25.7037 73.5407 22.7849H70.0021C69.7696 23.9214 68.9172 24.6705 67.1867 24.6705C65.1461 24.6705 63.9321 23.379 63.8288 21.1318H73.5666V20.0986C73.5666 15.2684 70.467 13.2279 66.98 13.2279C63.0539 13.2279 60.0317 15.9917 60.0317 20.2536V20.4602C60.0317 24.7738 63.0022 27.3309 67.0833 27.3309ZM63.8804 18.833C64.1645 16.9215 65.301 15.8109 66.98 15.8109C68.7623 15.8109 69.7955 16.7924 69.9246 18.833H63.8804ZM86.2012 27.332C88.4228 27.332 89.7913 26.2988 90.4887 24.9299V27.0479H94.2083V13.5389H90.4887V21.4687C90.4887 23.4576 89.2488 24.4391 87.6738 24.4391C86.0726 24.4391 85.3227 23.5609 85.3227 21.727V13.5389H81.6036V22.2436C81.6036 25.7822 83.5666 27.332 86.2012 27.332ZM100.493 27.0468H96.7476V13.5378H100.493V15.6042C101.165 14.3385 102.611 13.2279 104.626 13.2279C106.408 13.2279 107.752 13.977 108.397 15.5784C109.482 13.9511 111.238 13.2279 112.943 13.2279C115.449 13.2279 117.386 14.8035 117.386 18.3939V27.0468H113.666V18.8071C113.666 17.0765 112.891 16.3016 111.548 16.3016C110.102 16.3016 108.94 17.2315 108.94 19.0654V27.0468H105.22V18.8071C105.22 17.0765 104.42 16.3016 103.102 16.3016C101.655 16.3016 100.493 17.2315 100.493 19.0654V27.0468ZM126.034 27.3309C129.728 27.3309 132.053 25.7037 132.492 22.7849H128.953C128.72 23.9214 127.868 24.6705 126.137 24.6705C124.097 24.6705 122.883 23.379 122.78 21.1318H132.518V20.0986C132.518 15.2684 129.418 13.2279 125.931 13.2279C122.005 13.2279 118.983 15.9917 118.983 20.2536V20.4602C118.983 24.7738 121.953 27.3309 126.034 27.3309ZM122.832 18.833C123.116 16.9215 124.253 15.8109 125.931 15.8109C127.713 15.8109 128.747 16.7924 128.876 18.833H122.832Z" fill="black"/>
</svg>
