<svg width="136" height="24" viewBox="0 0 136 24" fill="none" xmlns="http://www.w3.org/2000/svg">
<path fill-rule="evenodd" clip-rule="evenodd" d="M36.5729 0.749878L25.0634 23.2499H14.2527L19.0694 13.9249H18.8533C14.8796 19.0834 8.95056 22.4793 0.502686 23.2499V14.054C0.502686 14.054 5.907 13.7348 9.08404 10.3946H0.502686V0.750055H10.1472V8.68253L10.3637 8.68164L14.3048 0.750055H21.5987V8.63223L21.8151 8.63188L25.9041 0.749878H36.5729Z" fill="black"/>
<path d="M99.3357 20.7664H102.442V2.93738H99.3357V20.7664Z" fill="black"/>
<path fill-rule="evenodd" clip-rule="evenodd" d="M82.2119 20.5843C82.8869 20.8649 83.5734 21.0053 84.2712 21.0053C85.4241 21.0053 86.4557 20.7247 87.366 20.1633C88.2761 19.6021 88.9816 18.8284 89.4822 17.8423C89.9829 16.8487 90.2331 15.7222 90.2331 14.4631C90.2331 13.2039 89.9753 12.0776 89.4595 11.0839C88.9436 10.0903 88.2269 9.32037 87.309 8.77423C86.3913 8.22052 85.3482 7.94746 84.1801 7.95503C83.4369 7.95503 82.7239 8.09916 82.0411 8.3874C81.3585 8.67563 80.7896 9.08523 80.3345 9.6162C80.2994 9.65662 80.2653 9.69745 80.2321 9.73868V2.94882H77.1146V20.7664H80.2094L80.2031 19.1019C80.2831 19.2001 80.3688 19.2959 80.4596 19.3897C80.9526 19.8979 81.5368 20.2961 82.2119 20.5843ZM85.3976 17.7058C84.8894 18.0168 84.3091 18.1723 83.6567 18.1723C83.012 18.1723 82.4204 18.0129 81.8819 17.6944C81.3432 17.3682 80.9147 16.9246 80.5961 16.3632C80.2851 15.8019 80.1296 15.1647 80.1296 14.4517C80.1221 13.7387 80.2738 13.1016 80.5848 12.5403C80.9034 11.9714 81.3319 11.5314 81.8705 11.2205C82.409 10.9019 83.0045 10.7464 83.6567 10.754C84.3091 10.7464 84.8894 10.8981 85.3976 11.2091C85.9134 11.5125 86.3078 11.9486 86.5809 12.5175C86.8615 13.0788 87.0019 13.7236 87.0019 14.4517C87.0019 15.1799 86.8615 15.8247 86.5809 16.3859C86.3078 16.9473 85.9134 17.3872 85.3976 17.7058Z" fill="black"/>
<path d="M41.0728 4.01831H44.6226L47.7981 15.6153L51.1763 4.01831H54.1345L57.7981 15.3825L60.8474 4.01831H64.1014L59.3 20.7664H56.2394L52.5139 9.66441L49.0941 20.7664H45.9994L41.0728 4.01831Z" fill="black"/>
<path fill-rule="evenodd" clip-rule="evenodd" d="M69.344 21.0621C68.1075 21.0698 66.9925 20.7966 65.9988 20.243C65.0127 19.6816 64.2353 18.9041 63.6663 17.9105C63.1051 16.9169 62.8245 15.7829 62.8245 14.5085C62.8245 13.2721 63.1127 12.1534 63.6892 11.1521C64.2656 10.1509 65.0468 9.36962 66.033 8.80832C67.0191 8.24702 68.1188 7.96637 69.3325 7.96637C70.6978 7.96637 71.8925 8.26977 72.9165 8.87658C73.9481 9.48339 74.718 10.3443 75.2262 11.4593C75.742 12.5668 75.9278 13.8373 75.7837 15.2709H66.0378C66.0651 15.842 66.2076 16.3616 66.4653 16.8296C66.7536 17.3454 67.1556 17.7474 67.6713 18.0356C68.1872 18.3239 68.7636 18.468 69.4008 18.468C69.8862 18.4604 70.3376 18.377 70.7547 18.2178C71.172 18.0509 71.5246 17.8271 71.8128 17.5464C72.1087 17.2658 72.3173 16.9473 72.4387 16.5908H75.6927C75.4955 17.463 75.1011 18.2405 74.5095 18.9231C73.9177 19.5983 73.1745 20.1254 72.2793 20.5046C71.3843 20.8839 70.4058 21.0698 69.344 21.0621ZM66.4767 12.142C66.295 12.459 66.169 12.8003 66.0988 13.166H72.5592C72.5123 12.704 72.3697 12.283 72.1315 11.9031C71.8583 11.4555 71.4867 11.1104 71.0165 10.8677C70.5462 10.6174 70.0152 10.4922 69.4236 10.4922C68.794 10.4922 68.2213 10.6363 67.7055 10.9246C67.1897 11.2128 66.7801 11.6186 66.4767 12.142Z" fill="black"/>
<path d="M92.5204 8.22808C92.5204 7.21167 92.7517 6.30903 93.2144 5.52017C93.6771 4.72373 94.3257 4.10553 95.1601 3.6656C96.0019 3.21807 96.9843 2.98672 98.1068 2.97156V5.73635C97.5834 5.74393 97.1359 5.85392 96.7643 6.06631C96.4002 6.27111 96.1196 6.57072 95.9223 6.96515C95.7408 7.32827 95.6428 7.74925 95.6284 8.22808H98.0386V10.8563H95.6266V20.7664H92.5204V10.8563H90.5179V8.22808H92.5204Z" fill="black"/>
<path fill-rule="evenodd" clip-rule="evenodd" d="M110.338 21.0393C109.071 21.0393 107.937 20.7625 106.936 20.2088C105.942 19.6475 105.161 18.8738 104.592 17.8877C104.03 16.8941 103.75 15.7677 103.75 14.5085C103.75 13.2418 104.03 12.1116 104.592 11.118C105.161 10.1167 105.942 9.33923 106.936 8.78551C107.937 8.23179 109.071 7.95493 110.338 7.95493C111.612 7.95493 112.75 8.23179 113.751 8.78551C114.76 9.33923 115.545 10.1129 116.106 11.1066C116.667 12.1002 116.952 13.2342 116.959 14.5085C116.952 15.7677 116.667 16.8941 116.106 17.8877C115.552 18.8738 114.771 19.6475 113.762 20.2088C112.753 20.7625 111.612 21.0393 110.338 21.0393ZM110.338 18.1836C111.005 18.1836 111.597 18.0318 112.112 17.7285C112.628 17.4175 113.026 16.9851 113.307 16.4313C113.588 15.8701 113.728 15.2291 113.728 14.5085C113.728 13.7803 113.588 13.1356 113.307 12.5743C113.026 12.013 112.628 11.5807 112.112 11.2772C111.597 10.9663 111.005 10.8108 110.338 10.8108C109.678 10.8108 109.09 10.9663 108.574 11.2772C108.066 11.5807 107.671 12.013 107.391 12.5743C107.11 13.1356 106.974 13.7803 106.981 14.5085C106.981 15.2291 107.121 15.8701 107.402 16.4313C107.69 16.9851 108.085 17.4175 108.585 17.7285C109.094 18.0318 109.678 18.1836 110.338 18.1836Z" fill="black"/>
<path d="M120.316 8.22806H116.857L120.6 20.7664H123.627L126.089 12.7581L128.746 20.7664H131.728L135.483 8.22806H132.354L130.224 16.0324L127.87 8.22806H124.844L122.502 16.2043L120.316 8.22806Z" fill="black"/>
</svg>
